<?xml version="1.0" encoding="iso-8859-1"?>
<!-- Uploaded to: SVG Repo, www.svgrepo.com, Generator: SVG Repo Mixer Tools -->
<svg fill="#D3D3D3" height="800px" width="800px" version="1.1" id="Layer_1" xmlns="http://www.w3.org/2000/svg" xmlns:xlink="http://www.w3.org/1999/xlink" 
	 viewBox="0 0 512 512" xml:space="preserve">
<g>
	<g>
		<g>
			<path d="M426.667,0h-256h-64C83.109,0,64,19.109,64,42.667V64c-11.782,0-21.333,9.551-21.333,21.333
				c0,11.782,9.551,21.333,21.333,21.333v42.667c-11.782,0-21.333,9.551-21.333,21.333C42.667,182.449,52.218,192,64,192v42.667
				c-11.782,0-21.333,9.551-21.333,21.333S52.218,277.333,64,277.333V320c-11.782,0-21.333,9.551-21.333,21.333
				c0,11.782,9.551,21.333,21.333,21.333v42.667c-11.782,0-21.333,9.551-21.333,21.333S52.218,448,64,448v21.333
				C64,492.891,83.109,512,106.667,512h64h256c23.558,0,42.667-19.109,42.667-42.667V42.667C469.333,19.109,450.225,0,426.667,0z
				 M106.667,448c11.782,0,21.333-9.551,21.333-21.333s-9.551-21.333-21.333-21.333v-42.667c11.782,0,21.333-9.551,21.333-21.333
				c0-11.782-9.551-21.333-21.333-21.333v-42.667c11.782,0,21.333-9.551,21.333-21.333s-9.551-21.333-21.333-21.333V192
				c11.782,0,21.333-9.551,21.333-21.333c0-11.782-9.551-21.333-21.333-21.333v-42.667c11.782,0,21.333-9.551,21.333-21.333
				C128,73.551,118.449,64,106.667,64V42.667h42.667v426.667h-42.667V448z M426.667,469.333H192V42.667h234.667V469.333z"/>
			<path d="M298.667,128h42.667c11.782,0,21.333-9.551,21.333-21.333c0-11.782-9.551-21.333-21.333-21.333h-42.667
				c-11.782,0-21.333,9.551-21.333,21.333C277.333,118.449,286.885,128,298.667,128z"/>
			<path d="M256,192h128c11.782,0,21.333-9.551,21.333-21.333c0-11.782-9.551-21.333-21.333-21.333H256
				c-11.782,0-21.333,9.551-21.333,21.333C234.667,182.449,244.218,192,256,192z"/>
			<path d="M256,384h128c11.782,0,21.333-9.551,21.333-21.333s-9.551-21.333-21.333-21.333H256
				c-11.782,0-21.333,9.551-21.333,21.333S244.218,384,256,384z"/>
			<path d="M384,213.333h-21.333c-11.782,0-21.333,9.551-21.333,21.333c0,11.782,9.551,21.333,21.333,21.333H384
				c11.782,0,21.333-9.551,21.333-21.333C405.333,222.885,395.782,213.333,384,213.333z"/>
			<path d="M256,256h42.667c11.782,0,21.333-9.551,21.333-21.333c0-11.782-9.551-21.333-21.333-21.333H256
				c-11.782,0-21.333,9.551-21.333,21.333C234.667,246.449,244.218,256,256,256z"/>
			<path d="M384,277.333h-42.667c-11.782,0-21.333,9.551-21.333,21.333c0,11.782,9.551,21.333,21.333,21.333H384
				c11.782,0,21.333-9.551,21.333-21.333C405.333,286.885,395.782,277.333,384,277.333z"/>
			<path d="M256,320h21.333c11.782,0,21.333-9.551,21.333-21.333c0-11.782-9.551-21.333-21.333-21.333H256
				c-11.782,0-21.333,9.551-21.333,21.333C234.667,310.449,244.218,320,256,320z"/>
		</g>
	</g>
</g>
</svg>